<svg width="165" height="54" viewBox="0 0 165 54" fill="none" xmlns="http://www.w3.org/2000/svg">
<path d="M15.0625 41.1875C14.7031 41.0625 13.9375 41 12.7656 41H3.20312C2.39062 41 1.74219 40.875 1.25781 40.625C0.773438 40.3594 0.53125 39.8828 0.53125 39.1953C0.53125 38.6953 0.648438 38.2969 0.882812 38C1.47656 38.1562 2.04688 38.2344 2.59375 38.2344C3.14062 38.2344 3.57031 38.1797 3.88281 38.0703C4.19531 37.9453 4.46875 37.7344 4.70312 37.4375C5.17188 36.8125 5.40625 35.7734 5.40625 34.3203V10.3438C5.35938 9.25 5 8.55469 4.32812 8.25781C4.125 8.16406 3.84375 8.07812 3.48438 8C3.14062 7.92188 2.79688 7.84375 2.45312 7.76562C2.125 7.67188 1.84375 7.5625 1.60938 7.4375C1.14062 7.1875 0.90625 6.85937 0.90625 6.45312C0.90625 5.71875 1.03125 5.19531 1.28125 4.88281C1.64062 5.00781 2.41406 5.07031 3.60156 5.07031H6.64844L14.875 4.83594L15.8828 4.8125C20.6953 4.8125 24.2969 5.67188 26.6875 7.39062C29.0781 9.09375 30.2734 11.5 30.2734 14.6094C30.2734 16.9375 29.5156 19.0781 28 21.0312C26.3125 23.2031 23.9844 24.6719 21.0156 25.4375C21.8281 26 22.75 27.0312 23.7812 28.5312L26.2656 32.1641C28.5938 35.5547 30.5234 37.25 32.0547 37.25C32.6328 37.25 33.0703 37.1953 33.3672 37.0859L33.9531 36.8516C34.0781 36.8047 34.2188 36.7812 34.375 36.7812C34.5312 36.7812 34.6953 36.9062 34.8672 37.1562C35.0391 37.3906 35.125 37.6641 35.125 37.9766C35.125 38.2891 34.9922 38.6641 34.7266 39.1016C34.4609 39.5234 34.0859 39.9062 33.6016 40.25C32.5078 41.0469 31.3125 41.4453 30.0156 41.4453C28.7188 41.4453 27.6484 41.2266 26.8047 40.7891C25.9766 40.3516 25.2109 39.7812 24.5078 39.0781C23.8203 38.3594 23.1875 37.5469 22.6094 36.6406C22.0469 35.7344 21.5156 34.8047 21.0156 33.8516L19.6328 31.0625C18.6484 29.0312 17.8594 27.7266 17.2656 27.1484C16.6875 26.5547 16.1562 26.2578 15.6719 26.2578H13.3047C12.9141 26.2578 12.7188 25.9766 12.7188 25.4141C12.7188 24.6328 13.0156 24.0234 13.6094 23.5859C13.8125 23.4453 14.4219 23.3672 15.4375 23.3516C16.4531 23.3203 17.5938 23.1016 18.8594 22.6953C20.1406 22.2891 21.1953 21.7344 22.0234 21.0312C23.6328 19.6406 24.4375 17.6875 24.4375 15.1719C24.4375 13.0625 23.7344 11.3359 22.3281 9.99219C20.7344 8.47656 18.5156 7.70312 15.6719 7.67188C13.7969 7.67188 12.5469 7.95312 11.9219 8.51562C11.2969 9.04688 10.9688 10.0547 10.9375 11.5391V35.4688C10.9375 36.7031 11.2812 37.4844 11.9688 37.8125C12.1875 37.9062 12.4766 37.9922 12.8359 38.0703C13.1953 38.1484 13.5391 38.2344 13.8672 38.3281C14.2109 38.4062 14.5 38.5078 14.7344 38.6328C15.2031 38.8828 15.4375 39.2188 15.4375 39.6406C15.4375 40.3594 15.3125 40.875 15.0625 41.1875ZM37.7031 28.3906C37.7031 26.5 37.8984 24.8203 38.2891 23.3516C38.6797 21.8828 39.2031 20.5703 39.8594 19.4141C40.5312 18.2422 41.3125 17.2188 42.2031 16.3438C43.1094 15.4688 44.0781 14.7422 45.1094 14.1641C47.1406 13.0078 49.1406 12.4297 51.1094 12.4297C53.0781 12.4297 54.6562 12.7812 55.8438 13.4844C57.0312 14.1719 58 15.0938 58.75 16.25C60.1406 18.4531 60.8359 21.3828 60.8359 25.0391C60.8359 26.3984 60.2656 27.0938 59.125 27.125L42.7656 27.4766C42.8594 30.8672 43.7344 33.375 45.3906 35C46.7969 36.375 48.6172 37.0625 50.8516 37.0625C54.1797 37.0625 56.8828 36.3672 58.9609 34.9766C59.1016 34.9766 59.2734 35.0938 59.4766 35.3281C59.8672 35.7969 60.0625 36.2031 60.0625 36.5469C60.0625 37.2969 59.125 38.2578 57.25 39.4297C55.0938 40.7734 52.5781 41.4453 49.7031 41.4453C45.9531 41.4453 43.0078 40.25 40.8672 37.8594C38.7578 35.5156 37.7031 32.3594 37.7031 28.3906ZM42.9062 24.4531C47.4062 24.2344 51.5234 23.9453 55.2578 23.5859C55.4297 18.6172 53.7109 16.1328 50.1016 16.1328C48.0859 16.1328 46.4375 16.9141 45.1562 18.4766C43.9844 19.9141 43.2344 21.9062 42.9062 24.4531ZM82.8906 20.9844L82.9141 20.1406C82.9141 19.8438 82.8438 19.3438 82.7031 18.6406C82.5625 17.9219 82.1094 17.3359 81.3438 16.8828C80.5938 16.4297 79.6328 16.2031 78.4609 16.2031C77.3047 16.2031 76.2734 16.5 75.3672 17.0938C74.4766 17.6719 73.75 18.4531 73.1875 19.4375C72.125 21.3125 71.5938 23.8203 71.5938 26.9609C71.5938 29.9297 72.3125 32.3438 73.75 34.2031C75.2188 36.1094 77.1562 37.0625 79.5625 37.0625C81.75 37.0625 83.8438 36.4609 85.8438 35.2578C86.3281 34.9609 86.7031 34.7031 86.9688 34.4844C87.125 34.4844 87.3047 34.6094 87.5078 34.8594C87.8984 35.3125 88.0938 35.6797 88.0938 35.9609C88.0938 36.2266 87.9844 36.5391 87.7656 36.8984C87.5469 37.2422 87.2266 37.6172 86.8047 38.0234C86.3984 38.4141 85.9062 38.8125 85.3281 39.2188C84.75 39.625 84.1016 39.9922 83.3828 40.3203C81.7422 41.0703 80.0625 41.4453 78.3438 41.4453C76.625 41.4453 75.0156 41.1562 73.5156 40.5781C72.0312 39.9844 70.75 39.1172 69.6719 37.9766C67.3594 35.5547 66.2031 32.2266 66.2031 27.9922C66.2031 23.1797 67.6719 19.3125 70.6094 16.3906C73.2812 13.75 76.3672 12.4297 79.8672 12.4297C82.1641 12.4297 84.0781 12.9219 85.6094 13.9062C87.2188 14.9375 88.0234 16.2969 88.0234 17.9844C88.0234 18.9062 87.8203 19.6016 87.4141 20.0703C86.7109 20.8984 85.8906 21.3125 84.9531 21.3125C84.0312 21.3125 83.3438 21.2031 82.8906 20.9844ZM98.1016 8.07031C97.5703 8.07031 97.0781 7.99219 96.625 7.83594C96.1875 7.66406 95.8047 7.42187 95.4766 7.10938C94.7891 6.45312 94.4453 5.57031 94.4453 4.46094C94.4453 3.39844 94.8516 2.5 95.6641 1.76562C96.4453 1.03125 97.3828 0.664062 98.4766 0.664062C99.5703 0.664062 100.445 0.992188 101.102 1.64844C101.758 2.30469 102.086 3.19531 102.086 4.32031C102.086 5.38281 101.695 6.28125 100.914 7.01562C100.148 7.71875 99.2109 8.07031 98.1016 8.07031ZM96.6719 41C94.2656 41 93.0625 40.4531 93.0625 39.3594C93.0625 38.7969 93.1875 38.3594 93.4375 38.0469C93.8125 38.1719 94.1562 38.2344 94.4688 38.2344C95.9219 38.2344 96.6328 37.3125 96.6016 35.4688V19.7656C96.6016 18.6719 96.4453 17.9141 96.1328 17.4922C95.8359 17.0547 95.2969 16.8359 94.5156 16.8359C93.9375 16.8359 93.4141 16.9062 92.9453 17.0469C92.6641 17.0781 92.4609 16.8594 92.3359 16.3906C92.2266 15.9688 92.2891 15.6016 92.5234 15.2891C92.7578 14.9609 93.1172 14.625 93.6016 14.2812C94.1016 13.9219 94.6484 13.6094 95.2422 13.3438C96.5234 12.7344 97.5938 12.4297 98.4531 12.4297C99.3125 12.4297 99.9453 12.5547 100.352 12.8047C100.773 13.0547 101.094 13.3906 101.312 13.8125C101.656 14.5 101.828 15.6094 101.828 17.1406V35.8672C101.875 37.1016 102.32 37.8516 103.164 38.1172C103.398 38.1953 103.688 38.2656 104.031 38.3281C104.375 38.3906 104.68 38.4688 104.945 38.5625C105.227 38.6406 105.445 38.7344 105.602 38.8438C105.867 39.0469 106 39.375 106 39.8281C106 40.3906 105.883 40.8203 105.648 41.1172C105.32 41.0391 104.82 41 104.148 41H96.6719ZM121.469 49.7656C121.672 50.0312 121.773 50.3672 121.773 50.7734C121.773 51.1797 121.594 51.5234 121.234 51.8047C120.875 52.1016 120.438 52.3438 119.922 52.5312C118.938 52.875 117.992 53.0469 117.086 53.0469C116.18 53.0469 115.43 52.9844 114.836 52.8594C114.242 52.7344 113.75 52.5156 113.359 52.2031C112.609 51.5781 112.234 50.5234 112.234 49.0391V20.1406C112.234 18.6719 111.961 17.7578 111.414 17.3984C111.195 17.2578 110.906 17.1875 110.547 17.1875C110.188 17.1875 109.898 17.2422 109.68 17.3516C109.477 17.4609 109.305 17.5391 109.164 17.5859C109.039 17.6328 108.93 17.6328 108.836 17.5859C108.742 17.5234 108.648 17.4375 108.555 17.3281C108.32 17.0469 108.203 16.7812 108.203 16.5312C108.203 16.2656 108.297 15.9844 108.484 15.6875C108.688 15.375 109.008 15.0234 109.445 14.6328C109.883 14.2266 110.383 13.8594 110.945 13.5312C112.211 12.7969 113.477 12.4297 114.742 12.4297C116.273 12.4297 117.156 13.5781 117.391 15.875C119.844 13.5781 122.516 12.4297 125.406 12.4297C128.594 12.4297 131.203 13.5312 133.234 15.7344C135.438 18.1094 136.539 21.4219 136.539 25.6719C136.539 28.8438 135.82 31.6797 134.383 34.1797C133.07 36.4609 131.266 38.25 128.969 39.5469C126.766 40.8125 124.422 41.4453 121.938 41.4453C120.547 41.4453 119.055 41.2266 117.461 40.7891V44.0469C117.461 46.5781 117.602 48.1328 117.883 48.7109C118.18 49.3047 118.477 49.6562 118.773 49.7656C119.086 49.875 119.438 49.9297 119.828 49.9297C120.234 49.9297 120.781 49.875 121.469 49.7656ZM117.461 19.5312V35.7969C118.945 37.0625 120.734 37.6953 122.828 37.6953C125.266 37.6953 127.25 36.7969 128.781 35C130.406 33.0781 131.219 30.4609 131.219 27.1484C131.219 23.6641 130.5 21.0312 129.062 19.25C127.781 17.6406 126 16.8359 123.719 16.8359C121.438 16.8359 119.352 17.7344 117.461 19.5312ZM141.578 28.3906C141.578 26.5 141.773 24.8203 142.164 23.3516C142.555 21.8828 143.078 20.5703 143.734 19.4141C144.406 18.2422 145.188 17.2188 146.078 16.3438C146.984 15.4688 147.953 14.7422 148.984 14.1641C151.016 13.0078 153.016 12.4297 154.984 12.4297C156.953 12.4297 158.531 12.7812 159.719 13.4844C160.906 14.1719 161.875 15.0938 162.625 16.25C164.016 18.4531 164.711 21.3828 164.711 25.0391C164.711 26.3984 164.141 27.0938 163 27.125L146.641 27.4766C146.734 30.8672 147.609 33.375 149.266 35C150.672 36.375 152.492 37.0625 154.727 37.0625C158.055 37.0625 160.758 36.3672 162.836 34.9766C162.977 34.9766 163.148 35.0938 163.352 35.3281C163.742 35.7969 163.938 36.2031 163.938 36.5469C163.938 37.2969 163 38.2578 161.125 39.4297C158.969 40.7734 156.453 41.4453 153.578 41.4453C149.828 41.4453 146.883 40.25 144.742 37.8594C142.633 35.5156 141.578 32.3594 141.578 28.3906ZM146.781 24.4531C151.281 24.2344 155.398 23.9453 159.133 23.5859C159.305 18.6172 157.586 16.1328 153.977 16.1328C151.961 16.1328 150.312 16.9141 149.031 18.4766C147.859 19.9141 147.109 21.9062 146.781 24.4531Z" fill="black"/>
</svg>
